<svg width="2790" height="2670" viewBox="0 0 2790 2670" fill="none" xmlns="http://www.w3.org/2000/svg">
<path d="M1 1961V321L825 1373L1625 445L1661 341V1177L353 2669L1341 1425V1149L825 1757L317 1149V1729L1 1961Z" fill="#991B1B" stroke="#991B1B"/>
<path d="M1716.58 1297.71C1713.23 1301.45 1711.97 1302.63 1713 1301C1713.89 1299.61 1715.09 1298.52 1716.58 1297.71C1787.29 1218.88 2789 1 2789 1L2001 1085L2149 1185L1969 1433C1969 1433 1753.57 1277.75 1716.58 1297.71Z" fill="white"/>
<path d="M1713 1301C1690.13 1337 2789 1 2789 1L2001 1085L2149 1185L1969 1433C1969 1433 1735.87 1265 1713 1301Z" stroke="white"/>
<path d="M1545 1913L1313 1825L1496.76 1569.33C1496.76 1569.33 1809 1685 1937 1713C2065 1741 2161 1845 2217 1953C2272.25 2059.55 2257.42 2154.43 2237.8 2279.87L2237 2285C2217 2413 2093 2533 2005 2577C1917 2621 1673 2677 1449 2621C1225 2565 1089 2489 1089 2489L897 2321L1089 2093L1285 2245C1285 2245 1413 2314.54 1545 2349C1677 2383.46 1741 2349 1793 2321C1845 2293 1898.23 2285 1917 2213C1935.77 2141 1969 2057 1793 1993C1617 1929 1545 1913 1545 1913Z" fill="white"/>
<path d="M1497 1569L1496.76 1569.33M1496.76 1569.33L1313 1825L1545 1913C1545 1913 1617 1929 1793 1993C1969 2057 1935.77 2141 1917 2213C1898.23 2285 1845 2293 1793 2321C1741 2349 1677 2383.46 1545 2349C1413 2314.54 1285 2245 1285 2245L1089 2093L897 2321L1089 2489C1089 2489 1225 2565 1449 2621C1673 2677 1917 2621 2005 2577C2093 2533 2217 2413 2237 2285C2257 2157 2273 2061 2217 1953C2161 1845 2065 1741 1937 1713C1809 1685 1496.76 1569.33 1496.76 1569.33Z" stroke="white"/>
</svg>
